<mxfile host="Electron" modified="2023-06-17T09:30:16.989Z" agent="Mozilla/5.0 (Windows NT 10.0; Win64; x64) AppleWebKit/537.36 (KHTML, like Gecko) draw.io/21.4.0 Chrome/112.0.5615.204 Electron/24.5.1 Safari/537.36" etag="QyBzDir36n3uiqN0fosS" version="21.4.0" type="device">
  <diagram name="Page-1" id="oVk6OJmeQYWeN-jiUmRK">
    <mxGraphModel dx="414" dy="448" grid="1" gridSize="10" guides="1" tooltips="1" connect="1" arrows="1" fold="1" page="1" pageScale="1" pageWidth="827" pageHeight="1169" math="0" shadow="0">
      <root>
        <mxCell id="0" />
        <mxCell id="1" parent="0" />
        <mxCell id="lHOqpLfYiDpw_6H5dYu--9" value="" style="endArrow=oval;html=1;rounded=0;fillColor=#dae8fc;strokeColor=#6c8ebf;strokeWidth=3;startArrow=oval;startFill=1;jumpStyle=none;endFill=1;endSize=1;startSize=1;" edge="1" parent="1">
          <mxGeometry width="50" height="50" relative="1" as="geometry">
            <mxPoint x="340" y="280" as="sourcePoint" />
            <mxPoint x="380" y="280" as="targetPoint" />
          </mxGeometry>
        </mxCell>
        <mxCell id="lHOqpLfYiDpw_6H5dYu--10" value="" style="endArrow=oval;html=1;rounded=0;fillColor=#dae8fc;strokeColor=#6c8ebf;strokeWidth=3;startArrow=oval;startFill=1;jumpStyle=none;endFill=1;endSize=1;startSize=1;" edge="1" parent="1">
          <mxGeometry width="50" height="50" relative="1" as="geometry">
            <mxPoint x="340" y="210" as="sourcePoint" />
            <mxPoint x="340" y="240" as="targetPoint" />
          </mxGeometry>
        </mxCell>
        <mxCell id="lHOqpLfYiDpw_6H5dYu--11" value="" style="endArrow=oval;html=1;rounded=0;fillColor=#dae8fc;strokeColor=#6c8ebf;strokeWidth=3;startArrow=oval;startFill=1;jumpStyle=none;endFill=1;endSize=1;startSize=1;" edge="1" parent="1">
          <mxGeometry width="50" height="50" relative="1" as="geometry">
            <mxPoint x="380" y="210" as="sourcePoint" />
            <mxPoint x="380" y="240" as="targetPoint" />
          </mxGeometry>
        </mxCell>
        <mxCell id="lHOqpLfYiDpw_6H5dYu--12" value="" style="endArrow=oval;html=1;rounded=0;fillColor=#dae8fc;strokeColor=#6c8ebf;strokeWidth=3;startArrow=oval;startFill=1;jumpStyle=none;endFill=1;endSize=1;startSize=1;" edge="1" parent="1">
          <mxGeometry width="50" height="50" relative="1" as="geometry">
            <mxPoint x="350" y="200" as="sourcePoint" />
            <mxPoint x="340" y="210" as="targetPoint" />
          </mxGeometry>
        </mxCell>
        <mxCell id="lHOqpLfYiDpw_6H5dYu--13" value="" style="endArrow=oval;html=1;rounded=0;fillColor=#dae8fc;strokeColor=#6c8ebf;strokeWidth=3;startArrow=oval;startFill=1;jumpStyle=none;endFill=1;endSize=1;startSize=1;" edge="1" parent="1">
          <mxGeometry width="50" height="50" relative="1" as="geometry">
            <mxPoint x="380" y="210" as="sourcePoint" />
            <mxPoint x="370" y="200" as="targetPoint" />
          </mxGeometry>
        </mxCell>
        <mxCell id="lHOqpLfYiDpw_6H5dYu--14" value="" style="endArrow=oval;html=1;rounded=0;fillColor=#dae8fc;strokeColor=#6c8ebf;strokeWidth=3;startArrow=oval;startFill=1;jumpStyle=none;endFill=1;endSize=1;startSize=1;" edge="1" parent="1">
          <mxGeometry width="50" height="50" relative="1" as="geometry">
            <mxPoint x="350" y="200" as="sourcePoint" />
            <mxPoint x="370" y="200" as="targetPoint" />
          </mxGeometry>
        </mxCell>
        <mxCell id="lHOqpLfYiDpw_6H5dYu--15" value="" style="endArrow=oval;html=1;rounded=0;fillColor=#dae8fc;strokeColor=#6c8ebf;strokeWidth=3;startArrow=oval;startFill=1;jumpStyle=none;endFill=1;endSize=1;startSize=1;" edge="1" parent="1">
          <mxGeometry width="50" height="50" relative="1" as="geometry">
            <mxPoint x="380" y="280" as="sourcePoint" />
            <mxPoint x="400" y="262" as="targetPoint" />
          </mxGeometry>
        </mxCell>
        <mxCell id="lHOqpLfYiDpw_6H5dYu--16" value="" style="endArrow=oval;html=1;rounded=0;fillColor=#dae8fc;strokeColor=#6c8ebf;strokeWidth=3;startArrow=oval;startFill=1;jumpStyle=none;endFill=1;endSize=1;startSize=1;" edge="1" parent="1">
          <mxGeometry width="50" height="50" relative="1" as="geometry">
            <mxPoint x="380" y="240" as="sourcePoint" />
            <mxPoint x="400" y="258" as="targetPoint" />
          </mxGeometry>
        </mxCell>
        <mxCell id="lHOqpLfYiDpw_6H5dYu--74" value="" style="rounded=0;whiteSpace=wrap;html=1;fillColor=none;dashed=1;" vertex="1" parent="1">
          <mxGeometry x="410" y="190" width="120" height="110" as="geometry" />
        </mxCell>
        <mxCell id="lHOqpLfYiDpw_6H5dYu--1" value="" style="endArrow=oval;html=1;rounded=0;fillColor=#dae8fc;strokeColor=#6c8ebf;strokeWidth=3;startArrow=oval;startFill=1;jumpStyle=none;endSize=1;startSize=1;endFill=1;jumpSize=3;" edge="1" parent="1">
          <mxGeometry width="50" height="50" relative="1" as="geometry">
            <mxPoint x="240" y="280" as="sourcePoint" />
            <mxPoint x="270" y="280" as="targetPoint" />
          </mxGeometry>
        </mxCell>
        <mxCell id="lHOqpLfYiDpw_6H5dYu--2" value="" style="endArrow=oval;html=1;rounded=0;fillColor=#dae8fc;strokeColor=#6c8ebf;strokeWidth=3;startArrow=oval;startFill=1;jumpStyle=none;elbow=vertical;endSize=1;startSize=1;endFill=1;jumpSize=3;" edge="1" parent="1">
          <mxGeometry width="50" height="50" relative="1" as="geometry">
            <mxPoint x="240" y="240" as="sourcePoint" />
            <mxPoint x="270" y="240" as="targetPoint" />
          </mxGeometry>
        </mxCell>
        <mxCell id="lHOqpLfYiDpw_6H5dYu--3" value="" style="endArrow=oval;html=1;rounded=0;fillColor=#dae8fc;strokeColor=#6c8ebf;strokeWidth=3;startArrow=oval;startFill=1;jumpStyle=none;endSize=1;startSize=1;endFill=1;jumpSize=3;" edge="1" parent="1">
          <mxGeometry width="50" height="50" relative="1" as="geometry">
            <mxPoint x="290" y="262" as="sourcePoint" />
            <mxPoint x="320" y="262" as="targetPoint" />
          </mxGeometry>
        </mxCell>
        <mxCell id="lHOqpLfYiDpw_6H5dYu--4" value="" style="endArrow=oval;html=1;rounded=0;fillColor=#dae8fc;strokeColor=#6c8ebf;strokeWidth=3;startArrow=oval;startFill=1;jumpStyle=none;endSize=1;startSize=1;endFill=1;jumpSize=3;" edge="1" parent="1">
          <mxGeometry width="50" height="50" relative="1" as="geometry">
            <mxPoint x="290" y="258" as="sourcePoint" />
            <mxPoint x="320" y="258" as="targetPoint" />
          </mxGeometry>
        </mxCell>
        <mxCell id="lHOqpLfYiDpw_6H5dYu--5" value="" style="endArrow=oval;html=1;rounded=0;fillColor=#dae8fc;strokeColor=#6c8ebf;strokeWidth=3;startArrow=oval;startFill=1;jumpStyle=none;endSize=1;startSize=1;endFill=1;jumpSize=3;" edge="1" parent="1">
          <mxGeometry width="50" height="50" relative="1" as="geometry">
            <mxPoint x="270" y="280" as="sourcePoint" />
            <mxPoint x="290" y="262" as="targetPoint" />
          </mxGeometry>
        </mxCell>
        <mxCell id="lHOqpLfYiDpw_6H5dYu--6" value="" style="endArrow=oval;html=1;rounded=0;fillColor=#dae8fc;strokeColor=#6C8EBF;strokeWidth=3;startArrow=oval;startFill=1;jumpStyle=none;endSize=1;startSize=1;endFill=1;jumpSize=3;" edge="1" parent="1">
          <mxGeometry width="50" height="50" relative="1" as="geometry">
            <mxPoint x="270" y="240" as="sourcePoint" />
            <mxPoint x="290" y="258" as="targetPoint" />
          </mxGeometry>
        </mxCell>
        <mxCell id="lHOqpLfYiDpw_6H5dYu--7" value="" style="endArrow=oval;html=1;rounded=0;fillColor=#dae8fc;strokeColor=#6c8ebf;strokeWidth=3;startArrow=oval;startFill=1;jumpStyle=none;endSize=1;startSize=1;endFill=1;jumpSize=3;" edge="1" parent="1">
          <mxGeometry width="50" height="50" relative="1" as="geometry">
            <mxPoint x="320" y="262" as="sourcePoint" />
            <mxPoint x="340" y="280" as="targetPoint" />
          </mxGeometry>
        </mxCell>
        <mxCell id="lHOqpLfYiDpw_6H5dYu--8" value="" style="endArrow=oval;html=1;rounded=0;fillColor=#dae8fc;strokeColor=#6c8ebf;strokeWidth=3;startArrow=oval;startFill=1;jumpStyle=none;endSize=1;startSize=1;endFill=1;jumpSize=3;" edge="1" parent="1">
          <mxGeometry width="50" height="50" relative="1" as="geometry">
            <mxPoint x="320" y="258" as="sourcePoint" />
            <mxPoint x="340" y="240" as="targetPoint" />
          </mxGeometry>
        </mxCell>
        <mxCell id="lHOqpLfYiDpw_6H5dYu--41" value="" style="endArrow=oval;html=1;rounded=0;fillColor=#dae8fc;strokeColor=#6c8ebf;strokeWidth=3;startArrow=oval;startFill=1;jumpStyle=none;endFill=1;endSize=1;startSize=1;" edge="1" parent="1">
          <mxGeometry width="50" height="50" relative="1" as="geometry">
            <mxPoint x="400" y="262" as="sourcePoint" />
            <mxPoint x="430" y="262" as="targetPoint" />
          </mxGeometry>
        </mxCell>
        <mxCell id="lHOqpLfYiDpw_6H5dYu--42" value="" style="endArrow=oval;html=1;rounded=0;fillColor=#dae8fc;strokeColor=#6c8ebf;strokeWidth=3;startArrow=oval;startFill=1;jumpStyle=none;endFill=1;endSize=1;startSize=1;" edge="1" parent="1">
          <mxGeometry width="50" height="50" relative="1" as="geometry">
            <mxPoint x="400" y="258" as="sourcePoint" />
            <mxPoint x="430" y="258" as="targetPoint" />
          </mxGeometry>
        </mxCell>
        <mxCell id="lHOqpLfYiDpw_6H5dYu--43" value="" style="endArrow=oval;html=1;rounded=0;fillColor=#dae8fc;strokeColor=#6c8ebf;strokeWidth=3;startArrow=oval;startFill=1;jumpStyle=none;endFill=1;endSize=1;startSize=1;" edge="1" parent="1">
          <mxGeometry width="50" height="50" relative="1" as="geometry">
            <mxPoint x="430" y="262" as="sourcePoint" />
            <mxPoint x="450" y="280" as="targetPoint" />
          </mxGeometry>
        </mxCell>
        <mxCell id="lHOqpLfYiDpw_6H5dYu--44" value="" style="endArrow=oval;html=1;rounded=0;fillColor=#dae8fc;strokeColor=#6c8ebf;strokeWidth=3;startArrow=oval;startFill=1;jumpStyle=none;endFill=1;endSize=1;startSize=1;" edge="1" parent="1">
          <mxGeometry width="50" height="50" relative="1" as="geometry">
            <mxPoint x="430" y="258" as="sourcePoint" />
            <mxPoint x="450" y="240" as="targetPoint" />
          </mxGeometry>
        </mxCell>
        <mxCell id="lHOqpLfYiDpw_6H5dYu--45" value="" style="endArrow=oval;html=1;rounded=0;fillColor=#dae8fc;strokeColor=#6c8ebf;strokeWidth=3;startArrow=oval;startFill=1;jumpStyle=none;endFill=1;endSize=1;startSize=1;" edge="1" parent="1">
          <mxGeometry width="50" height="50" relative="1" as="geometry">
            <mxPoint x="450" y="280" as="sourcePoint" />
            <mxPoint x="490" y="280" as="targetPoint" />
          </mxGeometry>
        </mxCell>
        <mxCell id="lHOqpLfYiDpw_6H5dYu--46" value="" style="endArrow=oval;html=1;rounded=0;fillColor=#dae8fc;strokeColor=#6c8ebf;strokeWidth=3;startArrow=oval;startFill=1;jumpStyle=none;endFill=1;endSize=1;startSize=1;" edge="1" parent="1">
          <mxGeometry width="50" height="50" relative="1" as="geometry">
            <mxPoint x="450" y="210" as="sourcePoint" />
            <mxPoint x="450" y="240" as="targetPoint" />
          </mxGeometry>
        </mxCell>
        <mxCell id="lHOqpLfYiDpw_6H5dYu--47" value="" style="endArrow=oval;html=1;rounded=0;fillColor=#dae8fc;strokeColor=#6c8ebf;strokeWidth=3;startArrow=oval;startFill=1;jumpStyle=none;endFill=1;endSize=1;startSize=1;" edge="1" parent="1">
          <mxGeometry width="50" height="50" relative="1" as="geometry">
            <mxPoint x="490" y="210" as="sourcePoint" />
            <mxPoint x="490" y="240" as="targetPoint" />
          </mxGeometry>
        </mxCell>
        <mxCell id="lHOqpLfYiDpw_6H5dYu--48" value="" style="endArrow=oval;html=1;rounded=0;fillColor=#dae8fc;strokeColor=#6c8ebf;strokeWidth=3;startArrow=oval;startFill=1;jumpStyle=none;endFill=1;endSize=1;startSize=1;" edge="1" parent="1">
          <mxGeometry width="50" height="50" relative="1" as="geometry">
            <mxPoint x="460" y="200" as="sourcePoint" />
            <mxPoint x="450" y="210" as="targetPoint" />
          </mxGeometry>
        </mxCell>
        <mxCell id="lHOqpLfYiDpw_6H5dYu--49" value="" style="endArrow=oval;html=1;rounded=0;fillColor=#dae8fc;strokeColor=#6c8ebf;strokeWidth=3;startArrow=oval;startFill=1;jumpStyle=none;endFill=1;endSize=1;startSize=1;" edge="1" parent="1">
          <mxGeometry width="50" height="50" relative="1" as="geometry">
            <mxPoint x="490" y="210" as="sourcePoint" />
            <mxPoint x="480" y="200" as="targetPoint" />
          </mxGeometry>
        </mxCell>
        <mxCell id="lHOqpLfYiDpw_6H5dYu--50" value="" style="endArrow=oval;html=1;rounded=0;fillColor=#dae8fc;strokeColor=#6c8ebf;strokeWidth=3;startArrow=oval;startFill=1;jumpStyle=none;endFill=1;endSize=1;startSize=1;" edge="1" parent="1">
          <mxGeometry width="50" height="50" relative="1" as="geometry">
            <mxPoint x="460" y="200" as="sourcePoint" />
            <mxPoint x="480" y="200" as="targetPoint" />
          </mxGeometry>
        </mxCell>
        <mxCell id="lHOqpLfYiDpw_6H5dYu--51" value="" style="endArrow=oval;html=1;rounded=0;fillColor=#dae8fc;strokeColor=#6c8ebf;strokeWidth=3;startArrow=oval;startFill=1;jumpStyle=none;endFill=1;endSize=1;startSize=1;" edge="1" parent="1">
          <mxGeometry width="50" height="50" relative="1" as="geometry">
            <mxPoint x="490" y="280" as="sourcePoint" />
            <mxPoint x="510" y="262" as="targetPoint" />
          </mxGeometry>
        </mxCell>
        <mxCell id="lHOqpLfYiDpw_6H5dYu--52" value="" style="endArrow=oval;html=1;rounded=0;fillColor=#dae8fc;strokeColor=#6c8ebf;strokeWidth=3;startArrow=oval;startFill=1;jumpStyle=none;endFill=1;endSize=1;startSize=1;" edge="1" parent="1">
          <mxGeometry width="50" height="50" relative="1" as="geometry">
            <mxPoint x="490" y="240" as="sourcePoint" />
            <mxPoint x="510" y="258" as="targetPoint" />
          </mxGeometry>
        </mxCell>
        <mxCell id="lHOqpLfYiDpw_6H5dYu--53" value="" style="endArrow=oval;html=1;rounded=0;fillColor=#dae8fc;strokeColor=#6c8ebf;strokeWidth=3;startArrow=oval;startFill=1;jumpStyle=none;endFill=1;endSize=1;startSize=1;" edge="1" parent="1">
          <mxGeometry width="50" height="50" relative="1" as="geometry">
            <mxPoint x="510" y="262" as="sourcePoint" />
            <mxPoint x="540" y="262" as="targetPoint" />
          </mxGeometry>
        </mxCell>
        <mxCell id="lHOqpLfYiDpw_6H5dYu--54" value="" style="endArrow=oval;html=1;rounded=0;fillColor=#dae8fc;strokeColor=#6c8ebf;strokeWidth=3;startArrow=oval;startFill=1;jumpStyle=none;endFill=1;endSize=1;startSize=1;" edge="1" parent="1">
          <mxGeometry width="50" height="50" relative="1" as="geometry">
            <mxPoint x="510" y="258" as="sourcePoint" />
            <mxPoint x="540" y="258" as="targetPoint" />
          </mxGeometry>
        </mxCell>
        <mxCell id="lHOqpLfYiDpw_6H5dYu--55" value="" style="endArrow=oval;html=1;rounded=0;fillColor=#dae8fc;strokeColor=#6c8ebf;strokeWidth=3;startArrow=oval;startFill=1;jumpStyle=none;endFill=1;endSize=1;startSize=1;" edge="1" parent="1">
          <mxGeometry width="50" height="50" relative="1" as="geometry">
            <mxPoint x="540" y="262" as="sourcePoint" />
            <mxPoint x="560" y="280" as="targetPoint" />
          </mxGeometry>
        </mxCell>
        <mxCell id="lHOqpLfYiDpw_6H5dYu--56" value="" style="endArrow=oval;html=1;rounded=0;fillColor=#dae8fc;strokeColor=#6c8ebf;strokeWidth=3;startArrow=oval;startFill=1;jumpStyle=none;endFill=1;endSize=1;startSize=1;" edge="1" parent="1">
          <mxGeometry width="50" height="50" relative="1" as="geometry">
            <mxPoint x="540" y="258" as="sourcePoint" />
            <mxPoint x="560" y="240" as="targetPoint" />
          </mxGeometry>
        </mxCell>
        <mxCell id="lHOqpLfYiDpw_6H5dYu--57" value="" style="endArrow=oval;html=1;rounded=0;fillColor=#dae8fc;strokeColor=#6c8ebf;strokeWidth=3;startArrow=oval;startFill=1;jumpStyle=none;endFill=1;endSize=1;startSize=1;" edge="1" parent="1">
          <mxGeometry width="50" height="50" relative="1" as="geometry">
            <mxPoint x="560" y="280" as="sourcePoint" />
            <mxPoint x="600" y="280" as="targetPoint" />
          </mxGeometry>
        </mxCell>
        <mxCell id="lHOqpLfYiDpw_6H5dYu--58" value="" style="endArrow=oval;html=1;rounded=0;fillColor=#dae8fc;strokeColor=#6c8ebf;strokeWidth=3;startArrow=oval;startFill=1;jumpStyle=none;endFill=1;endSize=1;startSize=1;" edge="1" parent="1">
          <mxGeometry width="50" height="50" relative="1" as="geometry">
            <mxPoint x="560" y="210" as="sourcePoint" />
            <mxPoint x="560" y="240" as="targetPoint" />
          </mxGeometry>
        </mxCell>
        <mxCell id="lHOqpLfYiDpw_6H5dYu--59" value="" style="endArrow=oval;html=1;rounded=0;fillColor=#dae8fc;strokeColor=#6c8ebf;strokeWidth=3;startArrow=oval;startFill=1;jumpStyle=none;endFill=1;endSize=1;startSize=1;" edge="1" parent="1">
          <mxGeometry width="50" height="50" relative="1" as="geometry">
            <mxPoint x="600" y="210" as="sourcePoint" />
            <mxPoint x="600" y="240" as="targetPoint" />
          </mxGeometry>
        </mxCell>
        <mxCell id="lHOqpLfYiDpw_6H5dYu--60" value="" style="endArrow=oval;html=1;rounded=0;fillColor=#dae8fc;strokeColor=#6c8ebf;strokeWidth=3;startArrow=oval;startFill=1;jumpStyle=none;endFill=1;endSize=1;startSize=1;" edge="1" parent="1">
          <mxGeometry width="50" height="50" relative="1" as="geometry">
            <mxPoint x="570" y="200" as="sourcePoint" />
            <mxPoint x="560" y="210" as="targetPoint" />
          </mxGeometry>
        </mxCell>
        <mxCell id="lHOqpLfYiDpw_6H5dYu--61" value="" style="endArrow=oval;html=1;rounded=0;fillColor=#dae8fc;strokeColor=#6c8ebf;strokeWidth=3;startArrow=oval;startFill=1;jumpStyle=none;endFill=1;endSize=1;startSize=1;" edge="1" parent="1">
          <mxGeometry width="50" height="50" relative="1" as="geometry">
            <mxPoint x="600" y="210" as="sourcePoint" />
            <mxPoint x="590" y="200" as="targetPoint" />
          </mxGeometry>
        </mxCell>
        <mxCell id="lHOqpLfYiDpw_6H5dYu--62" value="" style="endArrow=oval;html=1;rounded=0;fillColor=#dae8fc;strokeColor=#6c8ebf;strokeWidth=3;startArrow=oval;startFill=1;jumpStyle=none;endFill=1;endSize=1;startSize=1;" edge="1" parent="1">
          <mxGeometry width="50" height="50" relative="1" as="geometry">
            <mxPoint x="570" y="200" as="sourcePoint" />
            <mxPoint x="590" y="200" as="targetPoint" />
          </mxGeometry>
        </mxCell>
        <mxCell id="lHOqpLfYiDpw_6H5dYu--63" value="" style="endArrow=oval;html=1;rounded=0;fillColor=#dae8fc;strokeColor=#6c8ebf;strokeWidth=3;startArrow=oval;startFill=1;jumpStyle=none;endFill=1;endSize=1;startSize=1;" edge="1" parent="1">
          <mxGeometry width="50" height="50" relative="1" as="geometry">
            <mxPoint x="600" y="280" as="sourcePoint" />
            <mxPoint x="620" y="262" as="targetPoint" />
          </mxGeometry>
        </mxCell>
        <mxCell id="lHOqpLfYiDpw_6H5dYu--64" value="" style="endArrow=oval;html=1;rounded=0;fillColor=#dae8fc;strokeColor=#6c8ebf;strokeWidth=3;startArrow=oval;startFill=1;jumpStyle=none;endFill=1;endSize=1;startSize=1;" edge="1" parent="1">
          <mxGeometry width="50" height="50" relative="1" as="geometry">
            <mxPoint x="600" y="240" as="sourcePoint" />
            <mxPoint x="620" y="258" as="targetPoint" />
          </mxGeometry>
        </mxCell>
        <mxCell id="lHOqpLfYiDpw_6H5dYu--65" value="" style="endArrow=oval;html=1;rounded=0;fillColor=#dae8fc;strokeColor=#6c8ebf;strokeWidth=3;startArrow=oval;startFill=1;jumpStyle=none;endFill=1;endSize=1;startSize=1;" edge="1" parent="1">
          <mxGeometry width="50" height="50" relative="1" as="geometry">
            <mxPoint x="700" y="280" as="sourcePoint" />
            <mxPoint x="670" y="280" as="targetPoint" />
          </mxGeometry>
        </mxCell>
        <mxCell id="lHOqpLfYiDpw_6H5dYu--66" value="" style="endArrow=oval;html=1;rounded=0;fillColor=#dae8fc;strokeColor=#6c8ebf;strokeWidth=3;startArrow=oval;startFill=1;jumpStyle=none;endFill=1;endSize=1;startSize=1;" edge="1" parent="1">
          <mxGeometry width="50" height="50" relative="1" as="geometry">
            <mxPoint x="700" y="240" as="sourcePoint" />
            <mxPoint x="670" y="240" as="targetPoint" />
          </mxGeometry>
        </mxCell>
        <mxCell id="lHOqpLfYiDpw_6H5dYu--67" value="" style="endArrow=oval;html=1;rounded=0;fillColor=#dae8fc;strokeColor=#6c8ebf;strokeWidth=3;startArrow=oval;startFill=1;jumpStyle=none;endFill=1;endSize=1;startSize=1;" edge="1" parent="1">
          <mxGeometry width="50" height="50" relative="1" as="geometry">
            <mxPoint x="650" y="262" as="sourcePoint" />
            <mxPoint x="620" y="262" as="targetPoint" />
          </mxGeometry>
        </mxCell>
        <mxCell id="lHOqpLfYiDpw_6H5dYu--68" value="" style="endArrow=oval;html=1;rounded=0;fillColor=#dae8fc;strokeColor=#6c8ebf;strokeWidth=3;startArrow=oval;startFill=1;jumpStyle=none;endFill=1;endSize=1;startSize=1;" edge="1" parent="1">
          <mxGeometry width="50" height="50" relative="1" as="geometry">
            <mxPoint x="650" y="258" as="sourcePoint" />
            <mxPoint x="620" y="258" as="targetPoint" />
          </mxGeometry>
        </mxCell>
        <mxCell id="lHOqpLfYiDpw_6H5dYu--69" value="" style="endArrow=oval;html=1;rounded=0;fillColor=#dae8fc;strokeColor=#6c8ebf;strokeWidth=3;startArrow=oval;startFill=1;jumpStyle=none;endFill=1;endSize=1;startSize=1;" edge="1" parent="1">
          <mxGeometry width="50" height="50" relative="1" as="geometry">
            <mxPoint x="670" y="280" as="sourcePoint" />
            <mxPoint x="650" y="262" as="targetPoint" />
          </mxGeometry>
        </mxCell>
        <mxCell id="lHOqpLfYiDpw_6H5dYu--70" value="" style="endArrow=oval;html=1;rounded=0;fillColor=#dae8fc;strokeColor=#6c8ebf;strokeWidth=3;startArrow=oval;startFill=1;jumpStyle=none;endFill=1;endSize=1;startSize=1;" edge="1" parent="1">
          <mxGeometry width="50" height="50" relative="1" as="geometry">
            <mxPoint x="670" y="240" as="sourcePoint" />
            <mxPoint x="650" y="258" as="targetPoint" />
          </mxGeometry>
        </mxCell>
        <mxCell id="lHOqpLfYiDpw_6H5dYu--72" value="" style="endArrow=oval;html=1;rounded=0;endFill=1;exitX=0.5;exitY=1;exitDx=0;exitDy=0;" edge="1" parent="1" source="lHOqpLfYiDpw_6H5dYu--77">
          <mxGeometry width="50" height="50" relative="1" as="geometry">
            <mxPoint x="280" y="220" as="sourcePoint" />
            <mxPoint x="300" y="260" as="targetPoint" />
          </mxGeometry>
        </mxCell>
        <mxCell id="lHOqpLfYiDpw_6H5dYu--73" value="" style="endArrow=oval;html=1;rounded=0;endFill=1;exitX=0.5;exitY=1;exitDx=0;exitDy=0;" edge="1" parent="1" source="lHOqpLfYiDpw_6H5dYu--76">
          <mxGeometry width="50" height="50" relative="1" as="geometry">
            <mxPoint x="380" y="180" as="sourcePoint" />
            <mxPoint x="360" y="200" as="targetPoint" />
          </mxGeometry>
        </mxCell>
        <mxCell id="lHOqpLfYiDpw_6H5dYu--75" value="" style="endArrow=oval;html=1;rounded=0;endFill=1;exitX=0.5;exitY=0;exitDx=0;exitDy=0;entryX=0.25;entryY=1;entryDx=0;entryDy=0;" edge="1" parent="1" source="lHOqpLfYiDpw_6H5dYu--78" target="lHOqpLfYiDpw_6H5dYu--74">
          <mxGeometry width="50" height="50" relative="1" as="geometry">
            <mxPoint x="450" y="320" as="sourcePoint" />
            <mxPoint x="430" y="300" as="targetPoint" />
          </mxGeometry>
        </mxCell>
        <mxCell id="lHOqpLfYiDpw_6H5dYu--76" value="&lt;font style=&quot;font-size: 18px;&quot;&gt;Length difference&lt;/font&gt;" style="text;html=1;strokeColor=none;fillColor=none;align=center;verticalAlign=middle;whiteSpace=wrap;rounded=0;fontFamily=UGent Panno Text;fontSize=28;" vertex="1" parent="1">
          <mxGeometry x="330" y="150" width="110" height="30" as="geometry" />
        </mxCell>
        <mxCell id="lHOqpLfYiDpw_6H5dYu--77" value="&lt;font style=&quot;font-size: 18px;&quot;&gt;Coupler&lt;/font&gt;" style="text;html=1;strokeColor=none;fillColor=none;align=center;verticalAlign=middle;whiteSpace=wrap;rounded=0;fontFamily=UGent Panno Text;fontSize=28;fontColor=#000000;" vertex="1" parent="1">
          <mxGeometry x="220" y="190" width="110" height="30" as="geometry" />
        </mxCell>
        <mxCell id="lHOqpLfYiDpw_6H5dYu--78" value="&lt;font style=&quot;font-size: 18px;&quot;&gt;Mach-Zehnder Interferometer&lt;/font&gt;" style="text;html=1;strokeColor=none;fillColor=none;align=center;verticalAlign=middle;whiteSpace=wrap;rounded=0;fontFamily=UGent Panno Text;fontSize=28;" vertex="1" parent="1">
          <mxGeometry x="415" y="320" width="110" height="60" as="geometry" />
        </mxCell>
      </root>
    </mxGraphModel>
  </diagram>
</mxfile>
